<svg width="70" height="70" viewBox="0 0 70 70" fill="none" xmlns="http://www.w3.org/2000/svg">
<g filter="url(#filter0_d)">
<path d="M14.5 20.5L30.4757 32.0341" stroke="black" stroke-width="2"/>
<path d="M29.3356 32.2526L39.5 23" stroke="black" stroke-width="2"/>
<path d="M30 51C18.402 51 9 41.598 9 30H1C1 46.0163 13.9837 59 30 59V51ZM51 30C51 41.598 41.598 51 30 51V59C46.0163 59 59 46.0163 59 30H51ZM30 9C41.598 9 51 18.402 51 30H59C59 13.9837 46.0163 1 30 1V9ZM30 1C13.9837 1 1 13.9837 1 30H9C9 18.402 18.402 9 30 9V1Z" fill="black"/>
</g>
<defs>
<filter id="filter0_d" x="-4" y="0" width="78" height="78" filterUnits="userSpaceOnUse" color-interpolation-filters="sRGB">
<feFlood flood-opacity="0" result="BackgroundImageFix"/>
<feColorMatrix in="SourceAlpha" type="matrix" values="0 0 0 0 0 0 0 0 0 0 0 0 0 0 0 0 0 0 127 0"/>
<feOffset dy="4"/>
<feGaussianBlur stdDeviation="2"/>
<feColorMatrix type="matrix" values="0 0 0 0 0 0 0 0 0 0 0 0 0 0 0 0 0 0 0.25 0"/>
<feBlend mode="normal" in2="BackgroundImageFix" result="effect1_dropShadow"/>
<feBlend mode="normal" in="SourceGraphic" in2="effect1_dropShadow" result="shape"/>
</filter>
</defs>
</svg>
