<?xml version="1.0" encoding="UTF-8" standalone="no"?>
<!-- Created with Inkscape (http://www.inkscape.org/) -->

<svg
   xmlns:dc="http://purl.org/dc/elements/1.1/"
   xmlns:cc="http://creativecommons.org/ns#"
   xmlns:rdf="http://www.w3.org/1999/02/22-rdf-syntax-ns#"
   xmlns:svg="http://www.w3.org/2000/svg"
   xmlns="http://www.w3.org/2000/svg"
   xmlns:sodipodi="http://sodipodi.sourceforge.net/DTD/sodipodi-0.dtd"
   xmlns:inkscape="http://www.inkscape.org/namespaces/inkscape"
   width="108.525"
   height="108.5225"
   id="svg3815"
   version="1.1"
   inkscape:version="0.48.4 r9939"
   sodipodi:docname="AddButtonDark - Copy.svg">
  <defs
     id="defs3817" />
  <sodipodi:namedview
     id="base"
     pagecolor="#ffffff"
     bordercolor="#666666"
     borderopacity="1.0"
     inkscape:pageopacity="0.0"
     inkscape:pageshadow="2"
     inkscape:zoom="0.35"
     inkscape:cx="92.096431"
     inkscape:cy="-614.33461"
     inkscape:document-units="px"
     inkscape:current-layer="layer1"
     showgrid="false"
     fit-margin-top="0"
     fit-margin-left="0"
     fit-margin-right="0"
     fit-margin-bottom="0"
     inkscape:window-width="1200"
     inkscape:window-height="1857"
     inkscape:window-x="1912"
     inkscape:window-y="-8"
     inkscape:window-maximized="1" />
  <metadata
     id="metadata3820">
    <rdf:RDF>
      <cc:Work
         rdf:about="">
        <dc:format>image/svg+xml</dc:format>
        <dc:type
           rdf:resource="http://purl.org/dc/dcmitype/StillImage" />
        <dc:title></dc:title>
      </cc:Work>
    </rdf:RDF>
  </metadata>
  <g
     inkscape:label="Layer 1"
     inkscape:groupmode="layer"
     id="layer1"
     transform="translate(125.69107,-1626.6724)">
    <g
       id="g3450"
       transform="matrix(1.25,0,0,-1.25,-71.428571,1626.6724)"
       style="fill:#000000">
      <path
         d="m 0,0 c -23.975,0 -43.41,-19.434 -43.41,-43.409 0,-23.975 19.435,-43.409 43.41,-43.409 23.975,0 43.41,19.434 43.41,43.409 C 43.41,-19.434 23.975,0 0,0 m 0,-2.963 c 5.461,0 10.758,-1.068 15.742,-3.178 4.815,-2.037 9.141,-4.953 12.856,-8.668 3.716,-3.715 6.632,-8.042 8.67,-12.857 2.109,-4.985 3.177,-10.281 3.177,-15.743 0,-5.462 -1.068,-10.758 -3.177,-15.742 -2.038,-4.816 -4.954,-9.142 -8.67,-12.858 -3.715,-3.715 -8.041,-6.632 -12.856,-8.669 C 10.758,-82.785 5.461,-83.855 0,-83.855 c -5.463,0 -10.758,1.07 -15.742,3.177 -4.819,2.037 -9.143,4.954 -12.858,8.669 -3.714,3.716 -6.632,8.042 -8.67,12.858 -2.107,4.984 -3.177,10.28 -3.177,15.742 0,5.462 1.07,10.758 3.177,15.743 2.038,4.815 4.956,9.142 8.67,12.857 3.715,3.715 8.039,6.631 12.858,8.668 4.984,2.11 10.279,3.178 15.742,3.178"
         style="fill:#000000;fill-opacity:1;fill-rule:nonzero;stroke:none"
         id="path3452"
         inkscape:connector-curvature="0" />
    </g>
    <path
       d="m -39.184346,1685.8962 -64.448754,0 0,-11.8162 64.448754,0 0,11.8162 z"
       style="fill:#000000;fill-opacity:1;fill-rule:nonzero;stroke:none"
       id="path3454"
       inkscape:connector-curvature="0" />
    <path
       d="m -77.316846,1648.835 11.81375,0 0,64.4512 -11.81375,0 0,-64.4512 z"
       style="fill:#000000;fill-opacity:1;fill-rule:nonzero;stroke:none"
       id="path3456"
       inkscape:connector-curvature="0" />
  </g>
</svg>
