<?xml version="1.0" encoding="UTF-8" standalone="no"?>
<!-- Created with Inkscape (http://www.inkscape.org/) -->

<svg
   xmlns:dc="http://purl.org/dc/elements/1.1/"
   xmlns:cc="http://creativecommons.org/ns#"
   xmlns:rdf="http://www.w3.org/1999/02/22-rdf-syntax-ns#"
   xmlns:svg="http://www.w3.org/2000/svg"
   xmlns="http://www.w3.org/2000/svg"
   xmlns:sodipodi="http://sodipodi.sourceforge.net/DTD/sodipodi-0.dtd"
   xmlns:inkscape="http://www.inkscape.org/namespaces/inkscape"
   width="14.0345"
   height="20.374701"
   id="svg3639"
   version="1.1"
   inkscape:version="0.48.4 r9939"
   sodipodi:docname="New document 4">
  <defs
     id="defs3641" />
  <sodipodi:namedview
     id="base"
     pagecolor="#ffffff"
     bordercolor="#666666"
     borderopacity="1.0"
     inkscape:pageopacity="0.0"
     inkscape:pageshadow="2"
     inkscape:zoom="0.35"
     inkscape:cx="39.162297"
     inkscape:cy="-1789.8186"
     inkscape:document-units="px"
     inkscape:current-layer="layer1"
     showgrid="false"
     fit-margin-top="0"
     fit-margin-left="0"
     fit-margin-right="0"
     fit-margin-bottom="0"
     inkscape:window-width="1200"
     inkscape:window-height="1857"
     inkscape:window-x="1912"
     inkscape:window-y="-8"
     inkscape:window-maximized="1" />
  <metadata
     id="metadata3644">
    <rdf:RDF>
      <cc:Work
         rdf:about="">
        <dc:format>image/svg+xml</dc:format>
        <dc:type
           rdf:resource="http://purl.org/dc/dcmitype/StillImage" />
        <dc:title></dc:title>
      </cc:Work>
    </rdf:RDF>
  </metadata>
  <g
     inkscape:label="Layer 1"
     inkscape:groupmode="layer"
     id="layer1"
     transform="translate(-335.8377,1277.8311)">
    <g
       id="g3289"
       transform="matrix(1.25,0,0,-1.25,337.33314,-1267.6358)">
      <path
         d="m 0,0 c -0.435,0.751 -0.684,1.623 -0.684,2.553 0,2.819 2.286,5.103 5.104,5.103 2.817,0 5.102,-2.284 5.102,-5.103 C 9.522,1.849 9.095,0.61 8.836,0"
         style="fill:none;stroke:#7b7979;stroke-width:1;stroke-linecap:butt;stroke-linejoin:miter;stroke-miterlimit:10;stroke-opacity:1;stroke-dasharray:none"
         id="path3291"
         inkscape:connector-curvature="0" />
    </g>
    <g
       id="g3397"
       transform="matrix(1.25,0,0,-1.25,336.48839,-1264.7024)">
      <path
         d="M 0,0 C 0.979,1.157 2.986,3.391 4.289,4.83"
         style="fill:none;stroke:#7b7979;stroke-width:0.25;stroke-linecap:butt;stroke-linejoin:miter;stroke-miterlimit:10;stroke-opacity:1;stroke-dasharray:none"
         id="path3399"
         inkscape:connector-curvature="0" />
    </g>
    <g
       id="g3401"
       transform="matrix(1.25,0,0,-1.25,336.55064,-1262.2403)">
      <path
         d="M 0,0 C 0.02,0.221 4.522,5.12 6.046,6.77"
         style="fill:none;stroke:#7b7979;stroke-width:0.25;stroke-linecap:butt;stroke-linejoin:miter;stroke-miterlimit:10;stroke-opacity:1;stroke-dasharray:none"
         id="path3403"
         inkscape:connector-curvature="0" />
    </g>
    <g
       id="g3405"
       transform="matrix(1.25,0,0,-1.25,337.33189,-1260.7089)">
      <path
         d="M 0,0 C 0.023,0.265 7,7.696 7,7.696"
         style="fill:none;stroke:#7b7979;stroke-width:0.25;stroke-linecap:butt;stroke-linejoin:miter;stroke-miterlimit:10;stroke-opacity:1;stroke-dasharray:none"
         id="path3407"
         inkscape:connector-curvature="0" />
    </g>
    <g
       id="g3409"
       transform="matrix(1.25,0,0,-1.25,338.55626,-1259.7477)">
      <path
         d="M 0,0 C 1.482,1.718 7.104,7.628 7.104,7.628"
         style="fill:none;stroke:#7b7979;stroke-width:0.25;stroke-linecap:butt;stroke-linejoin:miter;stroke-miterlimit:10;stroke-opacity:1;stroke-dasharray:none"
         id="path3411"
         inkscape:connector-curvature="0" />
    </g>
    <g
       id="g3413"
       transform="matrix(1.25,0,0,-1.25,339.87701,-1258.8102)">
      <path
         d="M 0,0 C 2.001,2.208 7.131,7.541 7.131,7.541"
         style="fill:none;stroke:#7b7979;stroke-width:0.25;stroke-linecap:butt;stroke-linejoin:miter;stroke-miterlimit:10;stroke-opacity:1;stroke-dasharray:none"
         id="path3415"
         inkscape:connector-curvature="0" />
    </g>
    <g
       id="g3417"
       transform="matrix(1.25,0,0,-1.25,341.53351,-1258.2083)">
      <path
         d="M 0,0 C 1.739,1.859 4.565,4.788 5.997,6.267"
         style="fill:none;stroke:#7b7979;stroke-width:0.25;stroke-linecap:butt;stroke-linejoin:miter;stroke-miterlimit:10;stroke-opacity:1;stroke-dasharray:none"
         id="path3419"
         inkscape:connector-curvature="0" />
    </g>
    <g
       id="g3421"
       transform="matrix(1.25,0,0,-1.25,343.62701,-1258.0349)">
      <path
         d="M 0,0 C 1.425,1.488 3.17,3.284 4.461,4.608"
         style="fill:none;stroke:#7b7979;stroke-width:0.25;stroke-linecap:butt;stroke-linejoin:miter;stroke-miterlimit:10;stroke-opacity:1;stroke-dasharray:none"
         id="path3423"
         inkscape:connector-curvature="0" />
    </g>
    <g
       id="g3441"
       transform="matrix(1.25,0,0,-1.25,349.23614,-1264.4486)">
      <path
         d="m 0,0 c 0,-2.818 -2.285,-5.103 -5.103,-5.103 -2.818,0 -5.103,2.285 -5.103,5.103 0,2.818 2.285,5.103 5.103,5.103 C -2.285,5.103 0,2.818 0,0 z"
         style="fill:none;stroke:#7b7979;stroke-width:1;stroke-linecap:butt;stroke-linejoin:miter;stroke-miterlimit:10;stroke-opacity:1;stroke-dasharray:none"
         id="path3443"
         inkscape:connector-curvature="0" />
    </g>
  </g>
</svg>
