<?xml version="1.0" encoding="UTF-8" standalone="no"?>
<!-- Created with Inkscape (http://www.inkscape.org/) -->

<svg
   xmlns:dc="http://purl.org/dc/elements/1.1/"
   xmlns:cc="http://creativecommons.org/ns#"
   xmlns:rdf="http://www.w3.org/1999/02/22-rdf-syntax-ns#"
   xmlns:svg="http://www.w3.org/2000/svg"
   xmlns="http://www.w3.org/2000/svg"
   xmlns:sodipodi="http://sodipodi.sourceforge.net/DTD/sodipodi-0.dtd"
   xmlns:inkscape="http://www.inkscape.org/namespaces/inkscape"
   width="108.52375"
   height="108.525"
   id="svg3680"
   version="1.1"
   inkscape:version="0.48.4 r9939"
   sodipodi:docname="New document 25">
  <defs
     id="defs3682" />
  <sodipodi:namedview
     id="base"
     pagecolor="#ffffff"
     bordercolor="#666666"
     borderopacity="1.0"
     inkscape:pageopacity="0.0"
     inkscape:pageshadow="2"
     inkscape:zoom="2.8"
     inkscape:cx="99.633885"
     inkscape:cy="82.795169"
     inkscape:document-units="px"
     inkscape:current-layer="layer1"
     showgrid="false"
     fit-margin-top="0"
     fit-margin-left="0"
     fit-margin-right="0"
     fit-margin-bottom="0"
     inkscape:window-width="1200"
     inkscape:window-height="1857"
     inkscape:window-x="1912"
     inkscape:window-y="-8"
     inkscape:window-maximized="1" />
  <metadata
     id="metadata3685">
    <rdf:RDF>
      <cc:Work
         rdf:about="">
        <dc:format>image/svg+xml</dc:format>
        <dc:type
           rdf:resource="http://purl.org/dc/dcmitype/StillImage" />
        <dc:title></dc:title>
      </cc:Work>
    </rdf:RDF>
  </metadata>
  <g
     inkscape:label="Layer 1"
     inkscape:groupmode="layer"
     id="layer1"
     transform="translate(-320.73812,-478.09968)">
    <g
       id="g3430"
       transform="matrix(1.25,0,0,-1.25,410.74812,568.11218)"
       style="fill:#ffff00">
      <path
         d="m 0,0 c -3.715,-3.715 -8.041,-6.632 -12.857,-8.669 -3.485,-1.475 -7.125,-2.438 -10.868,-2.886 l -0.058,44.053 11.271,-10.213 10.678,0 -26.572,26.143 -27.645,-27.644 12.158,0 11.696,11.666 0.056,-44.141 c -4.211,0.363 -8.3,1.373 -12.201,3.022 -4.816,2.037 -9.14,4.954 -12.857,8.669 -3.715,3.716 -6.631,8.041 -8.668,12.857 -2.11,4.985 -3.178,10.282 -3.178,15.743 0,5.462 1.068,10.758 3.178,15.743 2.037,4.815 4.953,9.141 8.668,12.856 3.717,3.716 8.041,6.633 12.857,8.67 4.985,2.108 10.281,3.177 15.742,3.177 5.461,0 10.758,-1.069 15.743,-3.177 C -8.041,63.832 -3.715,60.915 0,57.199 3.715,53.484 6.633,49.158 8.67,44.343 10.777,39.358 11.848,34.062 11.848,28.6 11.848,23.139 10.777,17.842 8.67,12.857 6.633,8.041 3.715,3.716 0,0 m -28.6,72.01 c -23.974,0 -43.408,-19.436 -43.408,-43.41 0,-23.975 19.434,-43.41 43.408,-43.41 23.975,0 43.411,19.435 43.411,43.41 0,23.974 -19.436,43.41 -43.411,43.41"
         style="fill:#ffff00;fill-opacity:1;fill-rule:nonzero;stroke:none"
         id="path3432"
         inkscape:connector-curvature="0" />
    </g>
    <path
       d="m 400.97735,505.27643 -52.3025,0 0,-9.58875 52.3025,0 0,9.58875 z"
       style="fill:#ffff00;fill-opacity:1;fill-rule:nonzero;stroke:none"
       id="path3434"
       inkscape:connector-curvature="0" />
  </g>
</svg>
