<?xml version="1.0" encoding="UTF-8" standalone="no"?>
<!-- Created with Inkscape (http://www.inkscape.org/) -->

<svg
   xmlns:dc="http://purl.org/dc/elements/1.1/"
   xmlns:cc="http://creativecommons.org/ns#"
   xmlns:rdf="http://www.w3.org/1999/02/22-rdf-syntax-ns#"
   xmlns:svg="http://www.w3.org/2000/svg"
   xmlns="http://www.w3.org/2000/svg"
   xmlns:sodipodi="http://sodipodi.sourceforge.net/DTD/sodipodi-0.dtd"
   xmlns:inkscape="http://www.inkscape.org/namespaces/inkscape"
   width="108.05419"
   height="107.88418"
   id="svg3624"
   version="1.1"
   inkscape:version="0.48.4 r9939"
   sodipodi:docname="New document 21">
  <defs
     id="defs3626" />
  <sodipodi:namedview
     id="base"
     pagecolor="#ffffff"
     bordercolor="#666666"
     borderopacity="1.0"
     inkscape:pageopacity="0.0"
     inkscape:pageshadow="2"
     inkscape:zoom="1.979899"
     inkscape:cx="234.45003"
     inkscape:cy="227.97074"
     inkscape:document-units="px"
     inkscape:current-layer="layer1"
     showgrid="false"
     fit-margin-top="0"
     fit-margin-left="0"
     fit-margin-right="0"
     fit-margin-bottom="0"
     inkscape:window-width="1200"
     inkscape:window-height="1857"
     inkscape:window-x="1912"
     inkscape:window-y="-8"
     inkscape:window-maximized="1" />
  <metadata
     id="metadata3629">
    <rdf:RDF>
      <cc:Work
         rdf:about="">
        <dc:format>image/svg+xml</dc:format>
        <dc:type
           rdf:resource="http://purl.org/dc/dcmitype/StillImage" />
        <dc:title></dc:title>
      </cc:Work>
    </rdf:RDF>
  </metadata>
  <g
     inkscape:label="Layer 1"
     inkscape:groupmode="layer"
     id="layer1"
     transform="translate(-320.97291,-478.4201)">
    <path
       style="fill:#ffff00"
       d="m 366.4781,585.66557 c -11.5992,-2.0564 -20.7197,-6.63827 -28.963,-14.55018 -21.8013,-20.92482 -22.0912,-55.53641 -0.6449,-76.98275 8.2177,-8.21767 18.0217,-13.20385 30.0903,-15.30346 3.1338,-0.5452 12.94645,-0.54551 16.08295,-5.4e-4 12.042,2.09234 21.86225,7.09057 30.083,15.31129 20.888,20.88798 21.23938,54.11779 0.799,75.55778 -6.86375,7.19945 -16.06362,12.58124 -25.57475,14.96079 -6.97787,1.7458 -15.4941,2.1379 -21.8726,1.00707 l 0,0 z m 16.2436,-3.27235 c 17.38075,-2.77071 31.92675,-13.99889 38.74063,-29.90385 2.88262,-6.72899 4.07312,-12.52413 4.09175,-19.91856 0.0125,-5.13842 -0.34825,-8.21122 -1.51163,-12.85983 -3.43612,-13.73092 -12.76237,-25.55362 -25.41,-32.21191 -11.0055,-5.79384 -24.0845,-7.34794 -36.18545,-4.2997 -17.8769,4.50316 -32.1648,18.84877 -36.6247,36.77259 -0.6931,2.78567 -1.5036,8.03496 -1.2757,8.26282 0.082,0.0817 12.5394,0.0449 27.6835,-0.082 l 27.53485,-0.23077 -7.19215,-7.39812 -7.1921,-7.3981 -0.014,-7.23615 -0.014,-7.23613 17.03888,17.03662 17.03887,17.03661 -3.12725,3.21994 c -1.72,1.77095 -8.95325,9.14741 -16.07387,16.39211 l -12.94673,13.17222 0.01,-6.41073 0.01,-6.4107 4.8299,-5.30734 c 2.65645,-2.91903 5.56133,-6.13962 6.45508,-7.15686 l 1.625,-1.84952 -27.73858,0 -27.7386,0 0.2162,1.8392 c 0.9809,8.34636 5.7617,18.55363 11.9811,25.58046 8.883,10.03615 20.8809,15.97609 34.5315,17.0958 2.16825,0.17788 8.88063,-0.11912 11.258,-0.4981 l 0,0 z"
       id="path3587"
       inkscape:connector-curvature="0" />
    <path
       style="fill:#ffff00"
       d="m 402.66445,531.94272 0,-26.37586 4.664,0 4.664,0 0,26.37586 0,26.37586 -4.664,0 -4.664,0 0,-26.37586 z"
       id="path3589"
       inkscape:connector-curvature="0" />
  </g>
</svg>
