<?xml version="1.0" encoding="UTF-8" standalone="no"?>
<!-- Created with Inkscape (http://www.inkscape.org/) -->

<svg
   xmlns:dc="http://purl.org/dc/elements/1.1/"
   xmlns:cc="http://creativecommons.org/ns#"
   xmlns:rdf="http://www.w3.org/1999/02/22-rdf-syntax-ns#"
   xmlns:svg="http://www.w3.org/2000/svg"
   xmlns="http://www.w3.org/2000/svg"
   xmlns:sodipodi="http://sodipodi.sourceforge.net/DTD/sodipodi-0.dtd"
   xmlns:inkscape="http://www.inkscape.org/namespaces/inkscape"
   width="286.54715"
   height="502.71173"
   id="svg3446"
   version="1.1"
   inkscape:version="0.48.4 r9939"
   sodipodi:docname="UnLocked.svg">
  <defs
     id="defs3448" />
  <sodipodi:namedview
     id="base"
     pagecolor="#ffffff"
     bordercolor="#666666"
     borderopacity="1.0"
     inkscape:pageopacity="0.0"
     inkscape:pageshadow="2"
     inkscape:zoom="3.959798"
     inkscape:cx="220.27333"
     inkscape:cy="406.69995"
     inkscape:document-units="px"
     inkscape:current-layer="layer1"
     showgrid="false"
     inkscape:window-width="1280"
     inkscape:window-height="737"
     inkscape:window-x="-8"
     inkscape:window-y="-8"
     inkscape:window-maximized="1"
     fit-margin-top="0"
     fit-margin-left="0"
     fit-margin-right="0"
     fit-margin-bottom="0" />
  <metadata
     id="metadata3451">
    <rdf:RDF>
      <cc:Work
         rdf:about="">
        <dc:format>image/svg+xml</dc:format>
        <dc:type
           rdf:resource="http://purl.org/dc/dcmitype/StillImage" />
      </cc:Work>
    </rdf:RDF>
  </metadata>
  <g
     inkscape:label="Layer 1"
     inkscape:groupmode="layer"
     id="layer1"
     transform="translate(-179.58357,-226.7206)">
    <path
       style="fill:#7b7979;fill-opacity:1"
       d="m 301.50396,728.07091 c -42.85046,-7.29342 -77.12808,-30.7721 -99.69828,-68.28899 -19.69622,-32.73963 -24.94144,-76.15309 -13.83245,-114.48788 11.33458,-39.11324 41.06404,-72.86661 79.31208,-90.04705 15.61282,-7.01304 38.23705,-11.63905 56.97523,-11.64982 18.51181,-0.0106 42.30331,4.927 58.01734,12.0408 8.20243,3.71327 24.44998,13.43824 26.81214,16.0484 0.94815,1.04769 2.04229,1.9049 2.43141,1.9049 0.38912,0 1.01745,-3.9375 1.39628,-8.75 1.49946,-19.04831 4.10284,-30.44669 11.98952,-52.49377 8.14576,-22.77132 10.03061,-31.45743 10.03743,-46.25623 0.009,-18.70795 -4.21087,-35.06331 -13.50056,-52.33002 -7.77722,-14.4555 -25.37679,-33.29765 -40.94014,-43.83062 -6.61887,-4.47953 -21.92009,-11.0786 -32.3591,-13.95576 -11.38908,-3.13902 -31.26967,-4.25285 -43.6355,-2.44472 -19.95804,2.91825 -39.32067,11.69359 -55.12541,24.9834 -33.34654,28.04026 -48.46749,65.7577 -42.79831,106.75536 1.31949,9.54212 6.85548,26.89504 10.92085,34.23213 1.64861,2.97537 2.99747,6.1289 2.99747,7.00784 0,1.64248 -19.60253,14.08239 -22.19071,14.08239 -1.73227,0 -8.20593,-12.94441 -11.88023,-23.7551 -1.54313,-4.54031 -3.7796,-13.06635 -4.96993,-18.94677 -1.95833,-9.67448 -2.11779,-12.88493 -1.67605,-33.7449 0.51361,-24.25435 1.32718,-29.3206 7.47652,-46.55772 7.37779,-20.68051 23.56735,-43.46643 41.7404,-58.74729 17.04274,-14.33043 33.63937,-23.018 55.23196,-28.91139 8.8763,-2.42267 11.80229,-2.70552 32.05111,-3.09834 14.36304,-0.27864 24.67045,-0.0196 29,0.72875 33.35421,5.76534 63.18615,23.2912 84.63606,49.72252 19.87044,24.48507 28.15267,45.42356 32.46677,82.08003 1.75455,14.90825 1.79489,17.18808 0.48201,27.24278 -0.78804,6.03514 -2.31819,13.03854 -3.40035,15.56311 -1.08216,2.52457 -1.96756,5.17846 -1.96756,5.89753 0,0.71907 -1.51259,4.39426 -3.36131,8.16709 -1.84872,3.77284 -4.75792,10.4597 -6.46489,14.8597 -11.53576,29.73532 -10.24103,62.28601 3.57761,89.94444 4.20727,8.42097 9.52671,24.27517 11.68503,34.82639 7.65499,37.42227 1.43819,74.83197 -17.6157,106.00282 -21.76716,35.60956 -57.40821,59.4615 -98.90786,66.19176 -11.27286,1.82819 -34.21277,1.83546 -44.91288,0.0142 z m 42.91288,-2.01423 c 46.40577,-7.52592 84.73922,-35.98301 105.57321,-78.37298 7.298,-14.84891 11.69092,-31.01262 13.54924,-49.85437 2.25641,-22.87793 -3.55861,-53.3266 -14.28392,-74.79362 -8.11579,-16.24401 -11.05994,-29.79574 -11.06781,-50.94444 -0.008,-21.80729 2.56457,-33.36918 11.79328,-53 10.57591,-22.49654 12.98169,-36.9723 10.08884,-60.7055 -4.13106,-33.89163 -12.83375,-55.30678 -32.14659,-79.10474 -22.18486,-27.33694 -51.92962,-44.38549 -87.50625,-50.15518 -23.5725,-3.8229 -50.84763,-0.24326 -74.6565,9.79805 -33.72731,14.22438 -64.29151,46.67508 -76.73067,81.46667 -10.82425,30.2748 -11.12272,62.46362 -0.86883,93.7007 3.00041,9.14032 10.04881,23.79294 11.21684,23.31819 0.43056,-0.17501 4.8397,-2.73754 9.7981,-5.69452 l 9.01527,-5.37634 -2.84102,-5.12366 c -3.92596,-7.08034 -9.46468,-24.54694 -10.76439,-33.94603 -1.53924,-11.13131 -1.33771,-29.94747 0.42929,-40.08017 4.71666,-27.04734 19.18324,-51.17886 42.36902,-70.67519 15.79316,-13.28007 35.1684,-22.0653 55.08678,-24.97775 13.01585,-1.90317 36.36587,-0.71721 47.67413,2.42139 10.46795,2.90538 25.76637,9.5116 32.3591,13.97344 15.56335,10.53297 33.16292,29.37512 40.94014,43.83062 9.65866,17.95252 13.53334,33.51973 13.52274,54.33002 -0.009,17.01877 -1.57756,24.5448 -10.05961,48.25623 -8.06775,22.55326 -10.66181,34.10062 -12.01709,53.49377 -0.44738,6.4017 -1.084,9.75 -1.85378,9.75 -0.64482,0 -2.9409,-1.48298 -5.1024,-3.29551 -10.63575,-8.91862 -28.53563,-18.0151 -44.53983,-22.63454 -26.57849,-7.67158 -49.33472,-7.84701 -76.59836,-0.59051 -38.217,10.17186 -73.79225,41.21426 -90.45666,78.93106 -13.02668,29.48344 -15.41097,62.65795 -6.78634,94.42378 10.17696,37.48328 37.91144,70.97291 73.7648,89.07163 23.50127,11.86341 55.15993,16.76625 81.09927,12.5595 z m -33.91288,-22.8353 c 0,-1.57146 23.03097,-26.30058 83.47521,-89.63011 16.01073,-16.775 32.41086,-33.9875 36.44474,-38.25 4.03387,-4.2625 7.90292,-7.75 8.59788,-7.75 1.94723,0 2.85092,19.40609 1.5089,32.40244 l -1.12581,10.90244 -8.20046,8.68379 c -4.51025,4.77608 -23.94709,25.06998 -43.19297,45.09756 -28.45998,29.61591 -35.74065,36.66721 -39,37.77138 -2.44733,0.82907 -10.72312,1.55941 -21.25749,1.87596 -15.45557,0.46443 -17.25,0.34964 -17.25,-1.10346 z m 36.50749,-2.79573 c 3.27705,-1.09116 10.38552,-7.97147 39,-37.74815 19.24588,-20.02758 38.69586,-40.33544 43.22218,-45.12859 l 8.22967,-8.71481 1.08522,-11.87142 c 0.64309,-7.03486 0.75322,-14.62881 0.27033,-18.63951 l -0.81489,-6.76811 -26.05712,27.26811 c -49.92118,52.24122 -96.94548,102.02539 -97.32365,103.03559 -0.54946,1.46776 27.38887,0.23155 32.38826,-1.43311 z m -51.00749,1.22379 c -6.06806,-1.5753 -13.73031,-4.12129 -19.75,-6.56247 -0.9625,-0.39032 -1.75,-1.27838 -1.75,-1.97347 0,-1.66249 46.9533,-52.21568 128.89026,-138.77223 11.8447,-12.5125 22.2797,-22.75 23.18889,-22.75 2.59957,0 11.92085,22.85825 11.92085,29.23308 0,1.18902 -3.81172,5.99672 -9.25,11.66696 -22.76516,23.73618 -87.15471,91.47745 -104.65241,110.09996 -10.59398,11.275 -19.78734,20.58447 -20.42969,20.68771 -0.64234,0.10323 -4.3179,-0.63006 -8.1679,-1.62954 z m 27.0581,-21.55817 C 340.41419,661.63872 405.66454,593.0016 427.2592,570.48585 l 9.25523,-9.65 -2.11597,-6.87229 c -1.16378,-3.77976 -3.42975,-9.77706 -5.03549,-13.32733 l -2.91952,-6.45504 -3.82247,3.95504 c -34.56934,35.76825 -144.11702,153.10504 -144.11702,154.36409 0,1.4948 20.01642,8.07961 23.6254,7.77207 1.34402,-0.11453 9.03972,-7.53392 20.9327,-20.18112 z m 38.4419,17.37078 c 0,-1.77883 70.61545,-75.17531 72.85294,-75.72208 2.14872,-0.52508 0.81609,4.80134 -3.59059,14.3513 -4.978,10.78812 -7.28646,14.40401 -16.16885,25.32634 -10.56167,12.98727 -25.44111,24.94336 -39.5935,31.8146 -11.31735,5.49477 -13.5,6.17865 -13.5,4.22984 z m 33.01352,-20.18443 c 6.45483,-5.24829 13.47018,-12.18617 18.22215,-18.02092 8.60205,-10.56212 10.53581,-13.57471 15.39464,-23.98325 l 3.35273,-7.18218 -18.58967,19 c -10.22431,10.45 -24.50268,25.24641 -31.72969,32.88091 l -13.14004,13.88092 7.99719,-4.02091 c 4.39846,-2.2115 12.72017,-7.86106 18.49269,-12.55457 z m -130.09525,11.5466 c -6.9126,-4.12329 -16.79724,-12.52404 -16.86147,-14.33022 -0.0794,-2.23344 32.47007,-38.10613 107.86735,-118.88024 43.40683,-46.50232 49.90691,-53.249 50.93565,-52.86807 1.72036,0.63704 17.20186,20.31748 17.78693,22.61117 0.46222,1.81203 -0.79589,3.7153 -6.28441,9.50706 -54.28513,57.28441 -117.24187,124.36308 -137.94082,146.97212 -4.90682,5.35963 -9.3715,9.73946 -9.9215,9.73295 -0.55,-0.006 -3.06178,-1.24165 -5.58173,-2.74477 z m 33.1994,-30.22623 c 27.53764,-29.66056 60.41761,-64.64799 101.30863,-107.80205 12.14054,-12.81243 22.19662,-23.83743 22.34685,-24.5 0.15023,-0.66257 -3.29678,-5.58823 -7.66003,-10.94591 l -7.93319,-9.74124 -2.83996,3.38893 c -1.56198,1.86391 -18.40339,19.97247 -37.42536,40.24124 -39.52103,42.11147 -79.83804,85.65248 -100.80387,108.86478 l -14.38926,15.93107 4.88926,4.37509 c 5.17321,4.62919 13.46947,10.29723 14.50693,9.9112 0.33971,-0.12641 12.93971,-13.5018 28,-29.72311 z m -63.86767,2.87118 c -4.5375,-5.58401 -8.25,-10.76528 -8.25,-11.51395 0,-2.35846 36.29426,-42.81371 111.34833,-124.11395 28.43302,-30.79928 40.53524,-43.24877 42.03942,-43.24572 3.49047,0.007 23.61225,14.94053 23.61225,17.52392 0,0.64844 -5.0625,6.53246 -11.25,13.0756 -35.04419,37.05842 -108.06677,115.78637 -131.64682,141.9326 -7.91825,8.77998 -15.11825,16.08299 -16,16.22892 -0.99498,0.16466 -4.73297,-3.58632 -9.85318,-9.88742 z m 24.29724,-8.82976 c 20.50493,-22.708 61.06408,-66.51907 100.36737,-108.41456 19.02197,-20.27653 36.0171,-38.53203 37.76696,-40.56778 l 3.18158,-3.70136 -7.18158,-5.73634 c -3.94986,-3.15498 -8.58039,-6.61585 -10.29006,-7.69082 l -3.10848,-1.95448 -39.47746,42.7586 c -72.3204,78.33127 -111.23332,121.6119 -110.64336,123.06232 0.66705,1.63994 14.34981,18.08973 14.88503,17.89519 0.30098,-0.1094 6.82598,-7.15225 14.5,-15.65077 z m -39.776,-14.79814 c -1.9289,-4.2625 -4.50603,-10.79599 -5.72697,-14.51887 l -2.21989,-6.76887 8.82968,-10.23113 c 17.82488,-20.65404 84.68952,-95.07538 116.37175,-129.52349 l 6.70686,-7.29237 7.38366,1.66606 c 4.06102,0.91634 11.12073,3.01184 15.68824,4.65669 6.63614,2.38979 8.24338,3.35515 8,4.80509 -0.16751,0.99796 -17.89147,20.85901 -39.38658,44.13568 -45.58217,49.36013 -77.32656,84.18221 -96.24049,105.57121 -7.41692,8.3875 -14.02843,15.25 -14.69224,15.25 -0.66382,0 -2.78512,-3.4875 -4.71402,-7.75 z m 19.84782,-12.25 c 19.40663,-21.8413 48.56239,-53.80682 93.30962,-102.30192 21.21423,-22.99106 38.45164,-42.11606 38.30537,-42.5 -0.41761,-1.09613 -11.00114,-4.88775 -19.09016,-6.83918 l -7.35612,-1.77462 -2.64388,3.11525 c -1.45414,1.71338 -19.34818,21.49442 -39.76453,43.95786 -38.87293,42.77059 -68.74819,76.17117 -80.56257,90.06905 l -6.99317,8.22644 1.72868,5.27356 c 2.57662,7.86034 7.63644,18.88091 8.52008,18.55724 0.42596,-0.15602 6.97197,-7.25868 14.54668,-15.78368 z m -30.02671,-22.25 c -0.7922,-9.9317 -1.00141,-16.88096 -0.78011,-25.9134 l 0.18776,-7.66339 22.25,-25.40931 c 55.04713,-62.86334 63.09608,-71.62836 66.75,-72.68837 6.45022,-1.87122 17.40678,-3.03575 28.75,-3.05572 9.05247,-0.0159 11.25,0.25712 11.25,1.39791 0,0.77975 -14.07392,16.90201 -31.27538,35.82726 -39.46111,43.41556 -71.48873,79.18081 -83.72462,93.49527 -5.225,6.1126 -10.2491,11.14665 -11.16468,11.18678 -1.35638,0.0595 -1.77178,-1.26972 -2.24297,-7.17703 z m 16.5035,-12 c 16.00336,-18.26311 60.41582,-67.61528 88.78251,-98.65721 l 20.47612,-22.40721 -13.42724,0.62453 c -13.12685,0.61055 -24.563,2.56504 -25.80551,4.41027 -0.34195,0.50782 -9.65163,11.01598 -20.68818,23.35147 -11.03655,12.33548 -30.04905,33.82649 -42.25,47.75779 l -22.18355,25.32964 0.011,13.67036 c 0.009,11.74775 0.67095,21.17036 1.48622,21.17036 0.12955,0 6.24893,-6.8625 13.59862,-15.25 z m -14.09585,-34.09345 c 0,-4.18562 9.54108,-26.66216 14.22649,-33.51424 9.44485,-13.81246 24.57499,-28.9474 37.77351,-37.78552 5.13761,-3.44029 17.53886,-9.35679 19.61227,-9.35679 0.76325,0 1.38773,0.58867 1.38773,1.30816 0,0.71949 -8.18081,10.50699 -18.17959,21.75 -9.99878,11.24301 -25.78725,29.10434 -35.0855,39.69184 -15.55752,17.71465 -19.73491,21.50502 -19.73491,17.90655 z m 17.55947,-19.65655 c 5.99702,-6.875 19.93699,-22.63376 30.97772,-35.01948 l 20.07405,-22.51947 -6.16758,3.10309 c -15.67854,7.88833 -34.10162,24.85988 -46.21274,42.57172 -2.99769,4.38395 -10.07968,19.43462 -11.69965,24.86414 -0.91643,3.07151 -1.49071,3.64454 13.0282,-13 z"
       id="path3433"
       inkscape:connector-curvature="0" />
    <path
       style="fill:#7b7979;fill-opacity:1"
       d="m 306.25286,725.89427 c -32.33147,-4.62816 -58.93356,-18.2875 -81.69144,-41.94602 -25.09543,-26.08858 -38.00869,-56.48884 -39.38719,-92.72495 -1.87228,-49.21555 22.20908,-94.71164 65.13261,-123.05285 30.83945,-20.36243 70.90836,-26.9487 107.14286,-17.61146 17.68341,4.55682 35.60736,13.02383 48.91852,23.10841 2.89263,2.19145 5.81593,3.98447 6.49623,3.98447 1.35614,0 1.47945,-0.63516 2.84271,-14.64286 1.59611,-16.40011 3.02407,-22.30204 12.09742,-50 8.08362,-24.67663 8.60768,-27.13975 9.07983,-42.67582 0.541,-17.8012 -1.18527,-30.23677 -5.97445,-43.03847 -3.29449,-8.80635 -9.66069,-20.46669 -15.19762,-27.83601 -6.55433,-8.72341 -19.71471,-22.01681 -27.82116,-28.10236 -10.72094,-8.04826 -30.72007,-16.65507 -44.68604,-19.23106 -9.74045,-1.7966 -38.50579,-1.75333 -46.80769,0.0704 -29.75791,6.53714 -56.2411,24.98884 -73.9923,51.55285 -8.40225,12.57367 -13.07869,23.4432 -16.89116,39.26046 -1.76672,7.32976 -2.58994,33.30691 -1.35064,42.61972 1.43922,10.81509 5.16624,23.29195 10.26235,34.35512 1.58612,3.4433 2.75467,6.37079 2.59678,6.50553 -1.68341,1.43664 -17.54173,10.24268 -17.96944,9.97834 -0.84138,-0.52 -5.94772,-10.87971 -8.30347,-16.84602 -2.71723,-6.88182 -5.35142,-16.28071 -7.25843,-25.8984 -1.97261,-9.94858 -2.70792,-31.25 -1.43498,-41.57063 2.49382,-20.21909 9.22851,-39.77263 19.25374,-55.90144 10.73621,-17.27264 28.40444,-35.49066 44.83588,-46.23104 28.93727,-18.91481 67.201,-26.18036 100.94678,-19.16788 37.70968,7.83619 67.74726,28.64356 90.70808,62.83447 14.3064,21.30365 22.52848,50.95732 22.48882,81.10794 -0.0151,11.53045 -0.23111,14.03345 -1.69465,19.64286 -2.05653,7.88221 -4.38775,14.1714 -10.04465,27.09857 -8.71237,19.90955 -10.34387,27.89938 -10.29178,50.40143 0.0541,23.35221 1.88974,32.30315 10.47389,51.07143 9.42236,20.60094 13.76839,38.53287 14.54173,60 1.31573,36.52298 -12.76586,73.06525 -38.58414,100.12733 -3.87506,4.06173 -9.50006,9.42891 -12.5,11.92703 -16.97055,14.13183 -39.01833,24.62656 -61.88302,29.45627 -10.79493,2.28021 -32.9076,2.97021 -44.05398,1.37463 l 0,0 z m 31.55398,-21.83846 c 6.91284,-0.52723 10.45175,-1.12882 12.5,-2.12494 3.43859,-1.67225 26.10411,-24.33035 63.07178,-63.05109 l 26.44652,-27.70066 0.598,-6.22791 c 0.93941,-9.78372 0.69388,-34.49609 -0.36184,-36.41869 l -0.88921,-1.61934 -2.40946,1.83779 c -2.49611,1.90387 -17.67164,17.7237 -73.63192,76.75804 -47.97123,50.60644 -53.77371,57.03455 -52.84295,58.54056 0.59647,0.9651 14.90439,0.96834 27.51908,0.006 l 0,-1.9e-4 z m -21.90445,-11.93966 c 16.90999,-17.24478 112.93925,-118.41146 118.07772,-124.39471 3.78378,-4.40584 4.54102,-5.72244 4.54102,-7.89537 0,-3.36239 -4.03267,-15.30496 -7.4876,-22.1742 -2.56758,-5.10497 -3.55078,-6.39308 -4.89849,-6.41764 -1.11808,-0.0204 -19.86589,19.46274 -69.40968,72.13192 -49.14823,52.2487 -72.50609,77.38526 -79.23457,85.26831 -2.83867,3.32577 -3.38383,4.36939 -2.78255,5.32676 1.33517,2.12589 22.8823,9.27653 28.23772,9.37098 1.56066,0.0275 4.01196,-2.0945 12.95643,-11.21605 l 0,0 z m 57.8012,2.03885 c 4.81036,-2.31614 12.28182,-6.71605 16.60325,-9.77758 9.59938,-6.80072 22.34606,-19.38993 29.82045,-29.45205 9.39064,-12.6418 18.52009,-33.70207 14.60957,-33.70207 -2.2522,0 -73.35859,73.90845 -73.35859,76.24939 0,1.81087 3.79603,0.78906 12.32532,-3.31769 z m -95.36498,-10.25313 c 4.31543,-4.41965 19.21388,-20.25 33.10766,-35.17857 13.89379,-14.92858 43.58909,-46.58929 65.98957,-70.35715 47.96105,-50.8887 46.79957,-49.59338 46.79957,-52.19245 0,-3.0564 -15.75909,-23.52183 -18.11262,-23.52183 -1.56165,0 -21.14208,20.47895 -75.12405,78.57143 -51.12263,55.0154 -78.81098,85.58519 -82.3178,90.88435 l -1.8149,2.7425 2.43469,2.5348 c 3.8862,4.04602 11.12086,9.57677 15.88946,12.14718 2.4213,1.30515 4.60483,2.38031 4.85228,2.38923 0.24746,0.009 3.98072,-3.59985 8.29614,-8.01949 z m -27.22176,-19.28572 c 3.96719,-4.02678 22.27874,-23.71428 40.69235,-43.75 18.41361,-20.03571 49.39413,-53.47261 68.84561,-74.30422 36.67397,-39.27608 42.15203,-45.33294 42.15203,-46.60571 0,-1.98899 -16.23205,-14.67277 -21.70265,-16.95854 -2.45627,-1.02629 -2.4731,-1.02006 -6.13883,2.27576 -11.76584,10.5785 -124.72163,133.63463 -145.11659,158.09271 -5.01675,6.01619 -5.14625,6.44199 -2.95266,9.70799 4.26891,6.35591 15.18178,18.86344 16.45842,18.86344 0.30209,0 3.79514,-3.29464 7.76232,-7.32143 z m -0.20847,-48.39285 c 12.61892,-13.94643 35.32989,-38.85715 50.46883,-55.35715 65.49931,-71.38798 72.14392,-78.82565 72.14392,-80.75457 0,-0.55116 -1.20536,-1.61363 -2.67857,-2.36106 -3.38529,-1.7175 -15.18085,-5.49947 -22.79508,-7.3087 l -5.83079,-1.38547 -3.88911,4.11919 c -8.86937,9.39408 -63.48398,69.91128 -89.77382,99.47633 -41.34265,46.49313 -38.74519,43.41828 -38.2008,45.22206 2.57156,8.52064 9.53607,24.88057 11.5295,27.08327 1.12967,1.24828 1.27693,1.20617 3.62993,-1.03785 1.34888,-1.2864 12.77707,-13.74963 25.39599,-27.69605 z m -35.3432,-9.8202 c 2.1355,-2.25826 12.27241,-13.58658 22.52648,-25.17405 10.25406,-11.58748 27.80447,-31.20145 39.0009,-43.58663 29.25962,-32.36615 49.69333,-55.20509 55.25183,-61.75544 4.40848,-5.19513 4.72198,-5.77343 3.58181,-6.60714 -2.59258,-1.89574 -27.9706,-0.81311 -37.35178,1.59343 -3.22195,0.82653 -4.70772,1.81289 -8.81293,5.85065 -6.48639,6.37983 -21.22465,22.79323 -54.97107,61.21904 l -27.65929,31.49462 7e-5,13.21429 c 6e-5,12.89386 0.81328,25.63194 1.73119,27.11715 0.97686,1.5806 2.97312,0.57814 6.70279,-3.36592 z m 2.5319,-53.22025 c 3.17966,-3.24367 16.41259,-17.94903 29.40652,-32.67857 37.32105,-42.30604 39.49828,-45.14902 33.6961,-43.99973 -4.44874,0.88121 -16.93561,7.60037 -23.96491,12.89547 -8.76734,6.60434 -21.81301,19.5963 -28.51592,28.39851 -6.82649,8.96449 -14.26851,24.0229 -17.69145,35.79742 -1.15962,3.98894 -1.022,5.48449 0.50467,5.48449 0.43109,0 3.38534,-2.65392 6.56499,-5.89759 l 0,0 z"
       id="path3469"
       inkscape:connector-curvature="0" />
    <path
       style="fill:#7b7979;fill-opacity:1"
       d=""
       id="path4771"
       inkscape:connector-curvature="0"
       transform="translate(179.58357,226.7206)" />
    <path
       style="fill:#7b7979;fill-opacity:1"
       d="m 226.13799,246.35142 c -10.19273,-7.64936 -24.15224,-14.81094 -37.94642,-19.46748 -11.88994,-4.01372 -20.58869,-5.8022 -33.92858,-6.97579 -4.32312,-0.38034 -16.16734,-0.27197 -21.16071,0.19361 -11.96513,1.1156 -22.50058,3.31526 -33.0013,6.89023 -1.552501,0.52855 -2.792002,0.86683 -2.754447,0.75174 0.08376,-0.25668 5.021087,-1.9357 8.630787,-2.93505 12.51562,-3.46495 23.82672,-5.24964 35.18492,-5.55156 13.50493,-0.35898 26.31661,1.27321 40.24361,5.12698 14.08414,3.89725 29.03899,10.7218 40.26786,18.37598 2.52061,1.71818 5.90423,4.236 6.08441,4.52754 0.22342,0.3615 -0.27378,0.0742 -1.62013,-0.9362 z"
       id="path4773"
       inkscape:connector-curvature="0"
       transform="translate(179.58357,226.7206)" />
    <path
       style="fill:#7b7979;fill-opacity:1"
       d="m 235.79459,236.90947 c 0.0496,-1.03125 0.28483,-3.57396 0.52283,-5.65048 1.21755,-10.62318 3.12568,-19.28506 6.81945,-30.95666 1.34809,-4.2597 5.26416,-15.56435 5.35887,-15.46963 0.0421,0.0421 -0.76741,2.67619 -1.79899,5.85347 -7.53252,23.2005 -8.75612,28.37875 -10.64802,45.06259 -0.30309,2.67281 -0.33347,2.81157 -0.25414,1.16071 z"
       id="path4775"
       inkscape:connector-curvature="0"
       transform="translate(179.58357,226.7206)" />
    <path
       style="fill:#7b7979;fill-opacity:1"
       d="m 237.95099,209.60201 c 0,-1.15367 3.64563,-12.82329 7.13154,-22.82802 6.46215,-18.54666 8.37501,-25.36475 9.68172,-34.5089 0.54471,-3.81182 0.772,-16.95102 0.37427,-21.6356 -1.0284,-12.11271 -3.65417,-22.71843 -8.3031,-33.536907 C 245.14745,93.164526 241.29571,85.580465 239.7944,83.22885 231.15463,69.695728 217.17574,54.893344 203.85835,45.175823 198.08823,40.965447 191.76125,37.671316 181.82972,33.706672 169.66822,28.851821 161.8329,27.093135 148.1207,26.14047 142.55105,25.753513 130.64901,25.96362 126.35109,26.524769 104.49943,29.377785 83.71477,39.079143 66.730138,54.353185 58.208208,62.016839 51.380092,69.700882 45.580069,78.154483 l -2.841054,4.14087 0,-2.277863 0,-2.277867 1.853237,-2.64719 C 50.554039,66.576523 58.091492,58.378449 66.982676,50.739592 83.134493,36.862768 103.21487,27.680079 123.54229,24.875072 l 3.41819,-0.471681 -2.90418,0.138192 c -4.88866,0.23262 -9.00465,1.029183 -15.65737,3.030158 C 83.246208,35.137058 60.535443,51.6933 44.839139,73.907087 L 42.865284,76.700535 42.800316,60.087352 42.735347,43.474168 44.568083,41.6085 C 47.111864,39.019009 53.133218,33.633797 56.754882,30.709209 87.555918,5.8365587 131.63418,-4.1164983 170.64958,4.9913078 c 16.67376,3.8923448 31.01956,9.9532302 44.85495,18.9505462 15.83589,10.298267 30.99009,25.704977 42.70111,43.412626 3.36283,5.084772 4.4778,7.008158 7.09752,12.243602 7.20034,14.389714 12.12926,31.559278 14.16552,49.344678 0.83008,7.2502 1.01687,10.9732 1.01996,20.32932 0.004,11.46996 -0.18654,13.25157 -2.17167,20.32932 -1.92687,6.87001 -3.55037,11.19372 -9.29286,24.74874 -1.91238,4.51411 -4.07937,9.82689 -4.81555,11.80615 l -1.33849,3.59867 -10.93638,0 c -8.63712,0 -10.91417,-0.0664 -10.8307,-0.31567 0.0581,-0.17362 0.4053,-1.33845 0.77149,-2.58852 0.36619,-1.25006 3.08999,-9.88686 6.05289,-19.19289 6.52865,-20.5055 7.06954,-22.34971 8.09105,-27.58734 0.53471,-2.74167 1.12774,-8.46139 1.08032,-10.41965 -0.0238,-0.98352 -0.072,-1.23659 -0.12029,-0.63135 -0.90133,11.30436 -2.46059,17.54732 -9.24041,36.99684 -3.30886,9.49225 -5.88727,17.39596 -7.02331,21.52887 l -0.6074,2.20971 -1.07817,0 c -0.59299,0 -1.07817,-0.0688 -1.07817,-0.15295 z m 19.37206,-73.33565 c -0.12862,-10.25392 -0.34625,-13.157 -1.45645,-19.42795 -1.61016,-9.0949 -4.08081,-16.48066 -8.58037,-25.650103 C 240.74872,77.865837 235.29299,70.325101 223.5596,58.394098 211.51697,46.148658 205.3241,41.512833 193.12548,35.611886 181.42756,29.95315 169.09136,25.870334 160.80059,24.913569 157.01358,24.476543 151.86026,24.137374 149.5753,24.17477 l -2.15923,0.03534 2.52538,0.198619 c 8.41184,0.661584 14.61976,1.517719 19.25391,2.655306 9.0005,2.209436 25.98706,9.308245 32.67569,13.655409 9.73221,6.325292 23.05073,18.786827 31.94235,29.887007 4.86417,6.072373 7.89564,10.676148 11.14143,16.920055 4.70163,9.044525 7.92601,17.889486 9.89658,27.147846 1.65085,7.75623 2.26569,14.43416 2.32514,25.25382 0.0237,4.30577 0.0945,7.48775 0.15732,7.07107 0.0629,-0.41669 0.058,-5.24648 -0.0108,-10.73288 l -10e-6,0 z M 129.549,24.211088 c -0.38196,-0.05786 -1.007,-0.05786 -1.38896,0 -0.38196,0.05786 -0.0695,0.105205 0.69448,0.105205 0.76393,0 1.07644,-0.04734 0.69448,-0.105205 z m 13.13198,-0.25937 c -1.07644,-0.04734 -2.83789,-0.04734 -3.91434,0 -1.07644,0.04734 -0.19572,0.08607 1.95717,0.08607 2.15289,0 3.03362,-0.03873 1.95717,-0.08607 z"
       id="path4777"
       inkscape:connector-curvature="0"
       transform="translate(179.58357,226.7206)" />
    <path
       style="fill:#7b7979;fill-opacity:1"
       d="m 253.35582,59.873578 c -0.17848,-0.215057 -0.26769,-0.447834 -0.19824,-0.517282 0.0695,-0.06945 0.2723,0.04969 0.45078,0.264744 0.17848,0.215057 0.26769,0.447834 0.19824,0.517282 -0.0694,0.06945 -0.2723,-0.04969 -0.45078,-0.264744 z"
       id="path4779"
       inkscape:connector-curvature="0"
       transform="translate(179.58357,226.7206)" />
    <path
       style="fill:#7b7979;fill-opacity:1"
       d="m 254.11344,60.883731 c -0.17849,-0.215058 -0.2677,-0.447834 -0.19825,-0.517282 0.0695,-0.06945 0.2723,0.04969 0.45078,0.264743 0.17849,0.215057 0.26769,0.447834 0.19825,0.517282 -0.0695,0.06945 -0.2723,-0.04969 -0.45078,-0.264743 z"
       id="path4781"
       inkscape:connector-curvature="0"
       transform="translate(179.58357,226.7206)" />
  </g>
</svg>
